<?xml version="1.0" encoding="UTF-8"?>
<svg id="Calque_1" data-name="Calque 1" xmlns="http://www.w3.org/2000/svg" viewBox="0 0 464.05 660.4">
  <defs>
    <style>
      .cls-1 {
        opacity: 0;
      }
    </style>
  </defs>
  <g class="cls-1">
    <path d="m215.9,20.7C125.7,141.2,52.2,262.3,20.6,342.2,5.9,379.6,0,404.7,0,430.8c0,34.6,7.8,67.7,23.5,99.7,30.1,61.6,85.2,106.4,151.1,123.1,20.6,5.2,34,6.8,57.4,6.8s36.4-1.6,57.5-6.9c93.1-23.4,163.1-104,173.4-199.7,2.7-24.8.7-48.3-6.4-74.2-21.8-79.5-97-209.7-203.8-352.9-11-14.7-20.3-26.7-20.6-26.7-.4,0-7.7,9.3-16.2,20.7Z"/>
  </g>
</svg>